<svg xmlns="http://www.w3.org/2000/svg" width="300" height="300" viewBox="0 0 633 634">
<g fill="#5B6470" transform="translate(0,634) scale(0.1,-0.1)">
  <path d="M2822 4328 c-5 -7 -17 -47 -27 -88 -30 -132 -4 -119 -237 -122 l-203
-3 -3 -24 c-2 -13 2 -28 10 -32 7 -5 97 -9 201 -9 193 0 198 -1 177 -41 -10
-18 -29 -19 -705 -19 -639 0 -695 -1 -703 -17 -14 -24 4 -68 34 -82 18 -8 214
-11 689 -11 366 0 665 -3 665 -8 0 -4 -7 -18 -16 -30 -15 -22 -18 -22 -274
-22 l-260 0 -6 -26 c-4 -17 -2 -29 7 -35 8 -5 124 -9 258 -9 l243 0 -5 -22
c-3 -13 -13 -63 -23 -112 -18 -86 -18 -88 1 -102 12 -9 44 -13 94 -13 108 2
129 6 134 32 2 12 5 3 6 -20 1 -57 33 -92 87 -100 74 -10 139 25 183 97 16 27
21 30 21 15 0 -20 6 -20 297 -19 164 1 301 2 306 3 4 1 7 12 7 25 0 14 4 28
10 31 6 4 8 -10 4 -37 -10 -85 44 -128 142 -113 34 5 55 16 87 48 38 37 47 42
95 43 36 1 59 7 74 20 32 29 58 99 56 152 0 26 2 72 6 102 l7 55 -82 90 c-45
50 -114 126 -153 170 -145 162 -189 210 -208 228 -19 16 -57 17 -503 17 -374
0 -485 -3 -493 -12z m135 -224 c3 -8 -1 -22 -10 -31 -13 -13 -55 -15 -293 -14
-158 1 -282 5 -288 11 -6 6 -4 15 3 24 11 13 48 16 210 19 108 1 236 3 284 5
72 2 89 -1 94 -14z m1054 -116 c7 -17 12 -39 12 -49 -1 -9 7 -19 18 -22 20 -5
36 -33 25 -44 -3 -4 -14 -7 -24 -8 -9 -1 -25 -6 -34 -10 -9 -4 -36 -3 -60 2
-24 5 -55 6 -69 2 -43 -11 -55 3 -41 48 6 21 16 55 22 76 l12 37 63 0 c61 0
63 -1 76 -32z m-1123 0 c6 -6 54 -13 109 -15 54 -3 102 -8 106 -13 12 -11 -12
-46 -39 -58 -24 -12 -1576 -14 -1658 -4 -43 6 -51 11 -59 36 -7 21 -6 30 4 37
8 5 326 9 707 9 454 0 692 3 692 10 0 14 123 13 138 -2z m-40 -115 c-16 -2
-40 -2 -55 0 -16 2 -3 4 27 4 30 0 43 -2 28 -4z m195 0 c-13 -2 -33 -2 -45 0
-13 2 -3 4 22 4 25 0 35 -2 23 -4z m-146 -69 c15 -41 -14 -44 -375 -44 l-343
0 3 23 3 22 255 5 c140 3 299 7 353 8 83 2 99 -1 104 -14z m226 -101 c3 -5
-23 -8 -58 -8 -35 0 -58 3 -52 7 16 10 104 10 110 1z m932 -13 c19 -21 19 -21
-11 -5 -33 17 -90 20 -131 5 -26 -9 -27 -9 -9 5 31 24 128 20 151 -5z m-887
-36 c-4 -3 -12 5 -18 18 -12 22 -12 22 6 6 10 -10 15 -20 12 -24z m-208 13 c0
-2 -9 -12 -20 -22 -24 -21 -27 -14 -4 9 15 15 24 20 24 13z m910 0 c0 -2 -10
-12 -22 -23 l-23 -19 19 23 c18 21 26 27 26 19z m230 -63 c0 -18 -4 -35 -9
-38 -5 -4 -7 3 -4 14 3 11 0 34 -6 51 -9 27 -9 30 4 19 8 -7 15 -27 15 -46z
m-923 4 c-3 -7 -5 -2 -5 12 0 14 2 19 5 13 2 -7 2 -19 0 -25z m-98 -16 c21
-40 -49 -110 -86 -86 -27 17 -27 47 1 77 29 31 71 36 85 9z m910 4 c6 -7 8
-22 5 -32 -28 -78 -125 -88 -103 -10 15 51 71 75 98 42z m-169 0 c0 -3 -4 -8
-10 -11 -5 -3 -10 -1 -10 4 0 6 5 11 10 11 6 0 10 -2 10 -4z M2998 3513 c7 -3
16 -2 19 1 4 3 -2 6 -13 5 -11 0 -14 -3 -6 -6z M2180 4290 c-468 -4 -559 -7
-577 -20 -25 -16 -55 -69 -47 -82 3 -4 266 -8 584 -8 544 0 580 1 589 18 14
26 24 89 14 93 -4 2 -258 2 -563 -1z m560 -17 c0 -5 -5 -25 -11 -45 l-10 -38
-574 0 c-454 0 -575 3 -575 13 1 18 35 56 62 66 27 12 1108 15 1108 4z M1996
4117 c-27 -20 -18 -61 15 -65 25 -3 59 19 59 38 0 13 -30 40 -44 40 -7 0 -20
-6 -30 -13z m51 -23 c6 -16 -12 -34 -35 -34 -19 0 -27 31 -11 41 21 13 39 11
46 -7z M2192 4123 c-29 -6 -48 -39 -31 -59 14 -17 90 -19 107 -2 13 13 16 45
5 51 -16 8 -59 14 -81 10z m66 -25 c18 -18 -5 -38 -44 -38 -35 0 -49 12 -40
35 7 18 67 20 84 3z M2052 3818 c-21 -21 -14 -57 12 -64 56 -14 92 46 40 66
-33 13 -37 13 -52 -2z m58 -21 c0 -17 -20 -37 -37 -37 -7 0 -13 11 -13 25 0
20 5 25 25 25 14 0 25 -6 25 -13z M1250 3790 c0 -20 9 -40 25 -56 l24 -24 323
2 323 3 3 22 c2 13 -6 36 -18 53 l-21 30 -330 0 -329 0 0 -30z m658 4 c14 -10
22 -25 22 -45 l0 -29 -304 0 c-167 0 -312 3 -321 6 -16 6 -45 54 -45 74 0 7
101 10 313 10 267 0 316 -2 335 -16z M1803 3658 c-25 -34 4 -89 46 -87 21 1
22 2 6 6 -31 8 -45 23 -45 49 0 30 15 33 143 33 60 -1 111 2 114 5 4 3 -52 6
-124 6 -93 0 -133 -4 -140 -12z M2325 3660 c138 -3 252 -7 254 -8 4 -2 -4 -41
-14 -64 -4 -10 -3 -18 3 -18 11 0 33 79 26 92 -3 4 -121 7 -262 6 l-257 -2
250 -6z M1888 3573 c7 -3 16 -2 19 1 4 3 -2 6 -13 5 -11 0 -14 -3 -6 -6z
M2083 3563 c86 -2 228 -2 315 0 86 1 15 3 -158 3 -173 0 -244 -2 -157 -3z
M2386 3157 c3 -10 9 -15 12 -12 3 3 0 11 -7 18 -10 9 -11 8 -5 -6z M1762 3125
c0 -16 2 -22 5 -12 2 9 2 23 0 30 -3 6 -5 -1 -5 -18z M1882 3130 c0 -14 2 -19
5 -12 2 6 2 18 0 25 -3 6 -5 1 -5 -13z M2261 3114 c0 -20 6 -37 17 -45 15 -12
15 -12 5 1 -6 8 -13 29 -16 45 l-4 30 -2 -31z M3711 3124 c0 -11 3 -14 6 -6 3
7 2 16 -1 19 -3 4 -6 -2 -5 -13z M3381 3094 c0 -11 3 -14 6 -6 3 7 2 16 -1 19
-3 4 -6 -2 -5 -13z M2601 3084 c0 -11 3 -14 6 -6 3 7 2 16 -1 19 -3 4 -6 -2
-5 -13z M2369 3073 c-13 -16 -12 -17 4 -4 9 7 17 15 17 17 0 8 -8 3 -21 -13z
M3702 3070 c0 -14 2 -19 5 -12 2 6 2 18 0 25 -3 6 -5 1 -5 -13z M4450 3040
c-6 -11 -23 -26 -38 -34 -15 -9 -22 -15 -17 -16 16 0 54 29 65 51 6 10 8 19 6
19 -3 0 -10 -9 -16 -20z M1772 3025 c0 -16 2 -22 5 -12 2 9 2 23 0 30 -3 6 -5
-1 -5 -18z M1893 2985 c0 -27 2 -38 4 -22 2 15 2 37 0 50 -2 12 -4 0 -4 -28z
M3491 3014 c0 -11 3 -14 6 -6 3 7 2 16 -1 19 -3 4 -6 -2 -5 -13z M2361 2994
c0 -11 3 -14 6 -6 3 7 2 16 -1 19 -3 4 -6 -2 -5 -13z M4201 2994 c0 -11 3 -14
6 -6 3 7 2 16 -1 19 -3 4 -6 -2 -5 -13z M3481 2974 c0 -11 3 -14 6 -6 3 7 2
16 -1 19 -3 4 -6 -2 -5 -13z M3774 2968 l-19 -23 23 19 c21 18 27 26 19 26 -2
0 -12 -10 -23 -22z M4321 2974 c0 -11 3 -14 6 -6 3 7 2 16 -1 19 -3 4 -6 -2
-5 -13z M4651 2964 c0 -11 3 -14 6 -6 3 7 2 16 -1 19 -3 4 -6 -2 -5 -13z
M2391 2954 c0 -11 3 -14 6 -6 3 7 2 16 -1 19 -3 4 -6 -2 -5 -13z M3351 2954
c0 -11 3 -14 6 -6 3 7 2 16 -1 19 -3 4 -6 -2 -5 -13z M2006 2943 c-6 -14 -5
-15 5 -6 7 7 10 15 7 18 -3 3 -9 -2 -12 -12z M2681 2934 c0 -11 3 -14 6 -6 3
7 2 16 -1 19 -3 4 -6 -2 -5 -13z M2120 2920 c-6 -11 -8 -20 -6 -20 3 0 10 9
16 20 6 11 8 20 6 20 -3 0 -10 -9 -16 -20z M3471 2924 c0 -11 3 -14 6 -6 3 7
2 16 -1 19 -3 4 -6 -2 -5 -13z M4311 2924 c0 -11 3 -14 6 -6 3 7 2 16 -1 19
-3 4 -6 -2 -5 -13z M1783 2895 c0 -22 2 -30 4 -17 2 12 2 30 0 40 -3 9 -5 -1
-4 -23z M2885 2920 c-3 -6 1 -7 9 -4 18 7 21 14 7 14 -6 0 -13 -4 -16 -10z
M3735 2919 c-4 -6 -5 -12 -2 -15 2 -3 7 2 10 11 7 17 1 20 -8 4z M2565 2909
c-4 -6 -5 -12 -2 -15 2 -3 7 2 10 11 7 17 1 20 -8 4z M3082 2900 c0 -14 2 -19
5 -12 2 6 2 18 0 25 -3 6 -5 1 -5 -13z M4402 2900 c0 -14 2 -19 5 -12 2 6 2
18 0 25 -3 6 -5 1 -5 -13z M2211 2874 c0 -11 3 -14 6 -6 3 7 2 16 -1 19 -3 4
-6 -2 -5 -13z M3849 2873 c-13 -16 -12 -17 4 -4 16 13 21 21 13 21 -2 0 -10
-8 -17 -17z M3961 2874 c0 -11 3 -14 6 -6 3 7 2 16 -1 19 -3 4 -6 -2 -5 -13z
M1960 2849 c-7 -11 -10 -23 -7 -25 2 -2 9 7 15 21 14 30 7 33 -8 4z M2331
2854 c0 -11 3 -14 6 -6 3 7 2 16 -1 19 -3 4 -6 -2 -5 -13z M2551 2844 c0 -11
3 -14 6 -6 3 7 2 16 -1 19 -3 4 -6 -2 -5 -13z M3066 2843 c-6 -14 -5 -15 5 -6
7 7 10 15 7 18 -3 3 -9 -2 -12 -12z M3701 2834 c0 -11 3 -14 6 -6 3 7 2 16 -1
19 -3 4 -6 -2 -5 -13z M3962 2825 c0 -16 2 -22 5 -12 2 9 2 23 0 30 -3 6 -5
-1 -5 -18z M1901 2781 c0 -37 3 -61 8 -55 4 5 5 34 1 64 l-7 55 -2 -64z M2691
2814 c0 -11 3 -14 6 -6 3 7 2 16 -1 19 -3 4 -6 -2 -5 -13z M1792 2795 c0 -16
2 -22 5 -12 2 9 2 23 0 30 -3 6 -5 -1 -5 -18z M3440 2795 c0 -8 2 -15 4 -15 2
0 6 7 10 15 3 8 1 15 -4 15 -6 0 -10 -7 -10 -15z M2191 2784 c0 -11 3 -14 6
-6 3 7 2 16 -1 19 -3 4 -6 -2 -5 -13z M3691 2784 c0 -11 3 -14 6 -6 3 7 2 16
-1 19 -3 4 -6 -2 -5 -13z M4071 2784 c0 -11 3 -14 6 -6 3 7 2 16 -1 19 -3 4
-6 -2 -5 -13z M4281 2784 c0 -11 3 -14 6 -6 3 7 2 16 -1 19 -3 4 -6 -2 -5 -13z
M3311 2764 c0 -11 3 -14 6 -6 3 7 2 16 -1 19 -3 4 -6 -2 -5 -13z M2682 2740
c0 -14 2 -19 5 -12 2 6 2 18 0 25 -3 6 -5 1 -5 -13z M3812 2740 c0 -14 2 -19
5 -12 2 6 2 18 0 25 -3 6 -5 1 -5 -13z M4061 2744 c0 -11 3 -14 6 -6 3 7 2 16
-1 19 -3 4 -6 -2 -5 -13z M2181 2734 c0 -11 3 -14 6 -6 3 7 2 16 -1 19 -3 4
-6 -2 -5 -13z M2520 2706 c0 -14 4 -27 8 -30 5 -3 6 8 4 25 -5 35 -12 38 -12
5z M2810 2711 c0 -6 4 -13 10 -16 6 -3 7 1 4 9 -7 18 -14 21 -14 7z M4361
2704 c0 -11 3 -14 6 -6 3 7 2 16 -1 19 -3 4 -6 -2 -5 -13z M3421 2694 c0 -11
3 -14 6 -6 3 7 2 16 -1 19 -3 4 -6 -2 -5 -13z M4261 2694 c0 -11 3 -14 6 -6 3
7 2 16 -1 19 -3 4 -6 -2 -5 -13z M1802 2670 c0 -19 2 -27 5 -17 2 9 2 25 0 35
-3 9 -5 1 -5 -18z M3691 2674 c0 -11 3 -14 6 -6 3 7 2 16 -1 19 -3 4 -6 -2 -5
-13z M4582 2638 c-1 -26 -7 -49 -14 -51 -10 -4 -10 -6 0 -6 18 -1 24 20 19 65
-4 38 -4 37 -5 -8z M2161 2644 c0 -11 3 -14 6 -6 3 7 2 16 -1 19 -3 4 -6 -2
-5 -13z M2700 2651 c0 -6 4 -13 10 -16 6 -3 7 1 4 9 -7 18 -14 21 -14 7z
M3411 2644 c0 -11 3 -14 6 -6 3 7 2 16 -1 19 -3 4 -6 -2 -5 -13z M4251 2644
c0 -11 3 -14 6 -6 3 7 2 16 -1 19 -3 4 -6 -2 -5 -13z M2282 2620 c0 -14 2 -19
5 -12 2 6 2 18 0 25 -3 6 -5 1 -5 -13z M3281 2624 c0 -11 3 -14 6 -6 3 7 2 16
-1 19 -3 4 -6 -2 -5 -13z M4121 2624 c0 -11 3 -14 6 -6 3 7 2 16 -1 19 -3 4
-6 -2 -5 -13z M2400 2621 c0 -10 39 -46 43 -40 2 2 -7 14 -20 26 -13 12 -23
19 -23 14z M3909 2603 c-13 -16 -12 -17 3 -5 13 10 17 10 21 0 4 -8 6 -7 6 5
1 9 -3 17 -8 17 -5 0 -15 -8 -22 -17z M2151 2594 c0 -11 3 -14 6 -6 3 7 2 16
-1 19 -3 4 -6 -2 -5 -13z M4528 2573 c7 -3 16 -2 19 1 4 3 -2 6 -13 5 -11 0
-14 -3 -6 -6z"/>
</g>
<g fill="#E06020" transform="translate(0,634) scale(0.1,-0.1)">
  <path d="M1632 4269 c-27 -10 -61 -48 -62 -66 0 -10 121 -13 575 -13 l574 0
10 38 c6 20 11 40 11 45 0 11 -1081 8 -1108 -4z M2579 4113 c-162 -3 -199 -6
-210 -19 -7 -9 -9 -18 -3 -24 6 -6 130 -10 288 -11 238 -1 280 1 293 14 9 9
13 23 10 31 -5 13 -22 16 -94 14 -48 -2 -176 -4 -284 -5z M2001 4101 c-16 -10
-8 -41 11 -41 23 0 41 18 35 34 -7 18 -25 20 -46 7z M2174 4095 c-9 -23 5 -35
40 -35 39 0 62 20 44 38 -17 17 -77 15 -84 -3z M2750 3990 c0 -7 -238 -10
-692 -10 -381 0 -699 -4 -707 -9 -10 -7 -11 -16 -4 -37 8 -25 16 -30 59 -36
82 -10 1634 -8 1658 4 27 12 51 47 39 58 -4 5 -52 10 -106 13 -55 2 -103 9
-109 15 -15 15 -138 16 -138 2z M2440 3810 l-255 -5 -3 -22 -3 -23 343 0 c361
0 390 3 375 44 -5 13 -21 16 -104 14 -54 -1 -213 -5 -353 -8z M1260 3800 c0
-20 29 -68 45 -74 9 -3 154 -6 321 -6 l304 0 0 29 c0 59 -11 61 -357 61 -212
0 -313 -3 -313 -10z M2060 3785 c0 -27 18 -33 38 -13 20 20 14 38 -13 38 -20
0 -25 -5 -25 -25z M1823 3653 c-7 -3 -13 -15 -13 -28 0 -49 8 -50 390 -53
l356 -4 12 27 c16 35 15 52 -4 59 -19 7 -722 6 -741 -1z M2300 3167 c-28 -14
-40 -68 -19 -93 20 -24 75 -17 98 12 26 33 26 49 1 74 -23 23 -45 25 -80 7z
M4270 3173 c-39 -14 -53 -69 -24 -97 39 -40 114 -4 114 54 0 39 -43 60 -90 43z
M1771 3113 c0 -21 10 -148 22 -283 l22 -245 68 0 68 0 145 283 144 282 -63 0
-64 0 -83 -172 c-46 -95 -92 -193 -104 -218 l-21 -45 -7 175 c-4 96 -10 194
-13 218 l-6 42 -55 0 -54 0 1 -37z M3396 3133 c-6 -20 -116 -541 -116 -548 0
-3 27 -5 59 -5 l59 0 12 52 c6 29 16 81 23 115 l12 63 92 0 c50 0 94 3 96 8 3
4 8 26 12 50 l7 42 -92 0 -92 0 7 33 c4 17 11 49 16 70 l10 37 98 0 98 0 10
50 10 50 -158 0 c-141 0 -158 -2 -163 -17z M2502 3056 c-17 -31 -35 -49 -63
-61 -21 -10 -39 -24 -39 -31 0 -7 -3 -19 -6 -28 -5 -13 1 -16 26 -16 25 0 30
-3 26 -18 -3 -9 -15 -58 -26 -107 -32 -147 -26 -185 35 -211 41 -17 76 -18
128 -3 35 10 37 12 37 53 l0 44 -45 -6 c-34 -3 -46 -1 -51 11 -3 9 5 64 18
124 l24 108 57 3 56 3 8 42 9 42 -53 3 -52 3 6 44 6 45 -39 0 c-36 0 -41 -4
-62 -44z M4468 3058 c-16 -30 -36 -49 -65 -63 -36 -16 -43 -24 -43 -47 0 -23
4 -28 25 -28 14 0 25 -3 25 -7 0 -5 -11 -62 -25 -127 -21 -99 -24 -125 -14
-153 18 -55 87 -76 172 -52 35 10 37 12 37 53 l0 44 -45 -6 c-43 -4 -45 -3
-45 21 0 15 10 71 21 127 l22 100 53 0 c59 0 59 0 68 52 l7 37 -53 3 c-29 2
-52 8 -52 13 1 6 5 25 9 43 7 32 6 32 -33 32 -37 0 -42 -3 -64 -42z M2870
3011 c-82 -25 -138 -85 -165 -174 -31 -105 -10 -200 52 -238 48 -30 142 -35
208 -12 45 16 50 21 53 52 5 45 -6 53 -53 36 -22 -8 -54 -14 -71 -15 -39 0
-84 34 -84 64 0 21 5 24 70 29 38 3 90 15 114 26 73 32 105 108 74 175 -22 50
-124 79 -198 57z m88 -94 c15 -18 5 -50 -19 -66 -11 -6 -43 -15 -71 -18 l-50
-6 12 24 c35 67 100 100 128 66z M3835 3004 c-69 -36 -113 -104 -135 -208 -22
-107 8 -194 75 -216 44 -14 94 -7 128 20 32 25 37 25 37 0 0 -17 7 -20 44 -20
l44 0 17 78 c9 42 29 137 46 210 16 74 29 136 29 138 0 2 -20 4 -45 4 -39 0
-47 -4 -57 -25 l-11 -25 -20 21 c-38 40 -100 50 -152 23z m120 -104 c40 -44
-12 -211 -70 -226 -62 -15 -84 31 -61 126 25 102 87 149 131 100z M2202 2802
c-24 -114 -43 -211 -42 -215 0 -4 26 -7 57 -5 l57 3 43 195 c23 107 43 203 43
213 0 14 -9 17 -57 17 l-58 0 -43 -208z M4210 3006 c0 -3 -20 -97 -45 -210
-25 -114 -45 -209 -45 -211 0 -3 27 -5 60 -5 33 0 60 2 60 5 0 5 72 342 85
403 5 21 2 22 -55 22 -33 0 -60 -2 -60 -4z"/>
</g>
</svg>